<svg xmlns="http://www.w3.org/2000/svg" width="1200" height="630" viewBox="0 0 1200 630">
  <defs>
    <linearGradient id="paper" x1="0" y1="0" x2="1" y2="1">
      <stop offset="0" stop-color="#ffffff"/>
      <stop offset="1" stop-color="#f3ecd9"/>
    </linearGradient>
    <pattern id="grid" width="48" height="48" patternUnits="userSpaceOnUse">
      <path d="M48 0H0V48" fill="none" stroke="#16233a" stroke-opacity=".045"/>
    </pattern>
  </defs>
  <rect width="1200" height="630" fill="#fafbfc"/>
  <rect x="44" y="44" width="1112" height="542" rx="12" fill="url(#paper)" stroke="#dde2ea" stroke-width="2"/>
  <rect x="44" y="44" width="1112" height="542" rx="12" fill="url(#grid)"/>
  <rect x="44" y="44" width="14" height="542" rx="7" fill="#b08d2e"/>
  <text x="100" y="112" fill="#b08d2e" font-family="ui-monospace, SFMono-Regular, Menlo, monospace" font-size="18" font-weight="600" letter-spacing="4">MARRIOTT BONVOY — POINTS LEDGER</text>
  <text x="98" y="226" fill="#16233a" font-family="Hiragino Mincho ProN, Yu Mincho, serif" font-size="72" font-weight="700">ポイント宿泊台帳</text>
  <text x="102" y="282" fill="#3d4a63" font-family="Hiragino Kaku Gothic ProN, Yu Gothic, sans-serif" font-size="28" font-weight="600">無料宿泊券の狙い目を、毎朝のデータで。</text>
  <g transform="translate(100 356)">
    <rect width="292" height="112" rx="8" fill="#ffffff" stroke="#dde2ea"/>
    <text x="24" y="40" fill="#3d4a63" font-family="Hiragino Kaku Gothic ProN, Yu Gothic, sans-serif" font-size="18">ポイント推移</text>
    <path d="M24 82C70 70 96 88 136 62S214 44 266 28" fill="none" stroke="#0e7c66" stroke-width="6" stroke-linecap="round"/>
    <circle cx="266" cy="28" r="7" fill="#0e7c66"/>
  </g>
  <g transform="translate(416 356)">
    <rect width="292" height="112" rx="8" fill="#ffffff" stroke="#dde2ea"/>
    <text x="24" y="40" fill="#3d4a63" font-family="Hiragino Kaku Gothic ProN, Yu Gothic, sans-serif" font-size="18">無料宿泊券ライン</text>
    <text x="24" y="83" fill="#1a5fa8" font-family="ui-monospace, SFMono-Regular, Menlo, monospace" font-size="28" font-weight="700">75k / 100k pt</text>
  </g>
  <g transform="translate(732 356)">
    <rect width="292" height="112" rx="8" fill="#16233a"/>
    <text x="24" y="40" fill="#dde2ea" font-family="Hiragino Kaku Gothic ProN, Yu Gothic, sans-serif" font-size="18">ポイント単価</text>
    <text x="24" y="83" fill="#ffffff" font-family="ui-monospace, SFMono-Regular, Menlo, monospace" font-size="29" font-weight="700">現金価格 ÷ pt</text>
  </g>
  <text x="100" y="536" fill="#3d4a63" font-family="ui-monospace, SFMono-Regular, Menlo, monospace" font-size="18">ledger.areare-travel.com</text>
</svg>
